<svg xmlns="http://www.w3.org/2000/svg" width="39.71" height="16.75" viewBox="0 0 39.71 16.75">
	<style type="text/css">
		.st2{stroke:#625e59;fill:none;stroke-width:2;stroke-linecap:round;}
		.st1{stroke:#625e59;fill:none;stroke-width:1;}
		.st0{stroke:#625e59;fill:none;stroke-width:2;}
	</style>
	<path class="st0" d="M29.24,12.72L12.47,12.72"/>
	<path class="st0" d="M5.87,12.72C5.87,12.72 0.95,12.57 1,9.91C1.02,8.44 1.02,6.96 1.01,5.92C1.01,5.16 1.62,4.55 2.38,4.55L4.39,4.55C4.39,4.55 10.7,0.81 17.44,1C21.59,1.38 22.05,1.76 26.14,4.35C27.59,5.28 31.48,6.19 33.92,6.45C36.93,6.77 39.13,9.05 38.64,12.03C38.63,12.09 38.56,12.65 38.54,12.72L35.34,12.72"/>
	<path class="st0" d="M2.77,9.55L1.79,9.55L1.79,6.87L3.49,6.87C4.03,6.87 4.47,7.31 4.47,7.85C4.47,8.79 3.71,9.55 2.77,9.55Z"/>
	<path class="st0" d="M12.16,12.72C12.16,14.39 10.81,15.75 9.13,15.75C7.46,15.75 6.1,14.39 6.1,12.72C6.1,11.05 7.46,9.69 9.13,9.69C10.81,9.69 12.16,11.05 12.16,12.72Z"/>
	<path class="st1" d="M9.94,12.65C9.94,13.1 9.58,13.46 9.13,13.46C8.68,13.46 8.32,13.1 8.32,12.65C8.32,12.2 8.68,11.84 9.13,11.84C9.58,11.84 9.94,12.2 9.94,12.65Z"/>
	<path class="st0" d="M34.99,12.72C34.99,14.39 33.63,15.75 31.96,15.75C30.29,15.75 28.93,14.39 28.93,12.72C28.93,11.05 30.29,9.69 31.96,9.69C33.63,9.69 34.99,11.05 34.99,12.72Z"/>
	<path class="st1" d="M32.77,12.65C32.77,13.1 32.41,13.46 31.96,13.46C31.51,13.46 31.15,13.1 31.15,12.65C31.15,12.2 31.51,11.84 31.96,11.84C32.41,11.84 32.77,12.2 32.77,12.65Z"/>
	<path class="st2" d="M7.13,3.21C7.13,3.21 8.4,6.32 10.56,6.32L32.76,6.32"/>
	<path class="st2" d="M9.94,9.27L11.36,1.76"/>
	<path class="st2" d="M19.43,12.34L19.43,5.96L17.81,1.38"/>
	<path class="st0" d="M37.75,8.94C37.65,9.45 37.15,9.78 36.64,9.67C36.13,9.57 35.8,9.07 35.9,8.56C36.01,8.05 36.5,7.72 37.02,7.82"/>
</svg>