<svg xmlns="http://www.w3.org/2000/svg" width="21.94" height="28.51" viewBox="0 0 21.94 28.51">
	<style type="text/css">
		.st1{stroke:#625e59;fill:none;stroke-width:1;}
		.st0{stroke:#625e59;fill:none;stroke-width:2;}
	</style>
	<path class="st0" d="M5.61,24.72L5.61,27.51L20.94,27.51L20.94,10.65L13.5,5.2L5.61,5.26L5.61,11.24"/>
	<path class="st0" d="M12.75,4.93L5.61,4.97L5.61,1.03L12.75,1L12.75,4.93Z"/>
	<path class="st1" d="M8.14,0.97L8.14,4.47"/>
	<path class="st1" d="M10.1,1L10.1,4.5"/>
	<path class="st0" d="M5.79,10.16L1.74,16.62C-0.26,19.81 2.03,23.95 5.79,23.95C9.56,23.95 11.85,19.81 9.85,16.62L5.79,10.16Z"/>
	<path class="st1" d="M8.52,14.5L20.94,14.5"/>
	<path class="st1" d="M20.94,20.07L10.52,20.07"/>
</svg>