<svg xmlns="http://www.w3.org/2000/svg" width="24.25" height="24.25" viewBox="0 0 24.25 24.25">
	<style type="text/css">
		.st2{stroke:#625e59;fill:none;stroke-width:1;}
		.st1{fill:#625e59;}
		.st0{stroke:#625e59;fill:none;stroke-width:2;}
	</style>
	<path class="st0" d="M23.25,12.12C23.25,18.26 18.26,23.25 12.12,23.25C5.98,23.25 1,18.26 1,12.12C1,5.98 5.98,1 12.12,1C18.26,1 23.25,5.98 23.25,12.12Z"/>
	<path class="st0" d="M20.46,12.12C20.46,16.73 16.72,20.46 12.12,20.46C7.51,20.46 3.78,16.73 3.78,12.12C3.78,7.52 7.51,3.78 12.12,3.78C16.72,3.78 20.46,7.52 20.46,12.12Z"/>
	<path class="st0" d="M15.28,12.12C15.28,13.87 13.87,15.28 12.12,15.28C10.37,15.28 8.96,13.87 8.96,12.12C8.96,10.37 10.37,8.96 12.12,8.96C13.87,8.96 15.28,10.37 15.28,12.12Z"/>
	<path class="st1" d="M12.76,12.12C12.76,12.48 12.48,12.76 12.12,12.76C11.76,12.76 11.48,12.48 11.48,12.12C11.48,11.76 11.76,11.48 12.12,11.48C12.48,11.48 12.76,11.76 12.76,12.12"/>
	<path class="st2" d="M8.96,12.76L1.97,15.49"/>
	<path class="st2" d="M15.46,12.76L22.45,15.49"/>
	<path class="st2" d="M12.03,23.25L12.12,15.28"/>
	<path class="st2" d="M5.46,3.1L10.25,9.67"/>
	<path class="st2" d="M18.49,3.1L13.71,9.67"/>
</svg>